# xmcd CD database file
#
# Track frame offsets:
#	150
#	11180
#	28935
#	41075
#
# Disc length: 763 seconds
#
# Revision: 0
# Processed by: cddbd v1.5PL3 Copyright (c) Steve Scherf et al.
# Submitted via: CDex 1.51
#
DISCID=3002f904
DTITLE=love pandarins - "les triples"
DYEAR=1999
DGENRE=Pop
TTITLE0=les triples original mix
TTITLE1=les triples bambino holiday ye-ye mix
TTITLE2=les triples telephone and girlie mix
TTITLE3=paty song
EXTD=YEAR: 1999
EXTT0=
EXTT1=
EXTT2=
EXTT3=
PLAYORDER=
